HIERARCHY
ROOT hip
{
OFFSET -0 97.33 -0.85
CHANNELS 6 Xposition Yposition Zposition Zrotation Xrotation Yrotation
JOINT abdomen
{
OFFSET 0 7.23 0
CHANNELS 6 Xposition Yposition Zposition Zrotation Xrotation Yrotation
JOINT chest
{
OFFSET 0 16.54 0
CHANNELS 6 Xposition Yposition Zposition Zrotation Xrotation Yrotation
JOINT neck
{
OFFSET 0 34.21 0
CHANNELS 6 Xposition Yposition Zposition Zrotation Xrotation Yrotation
JOINT head
{
OFFSET 0 6.29 0
CHANNELS 6 Xposition Yposition Zposition Zrotation Xrotation Yrotation
End Site
{
OFFSET 0 21.21 0
}
}
}
JOINT lCollar
{
OFFSET 4.06 26.61 -1.12
CHANNELS 6 Xposition Yposition Zposition Zrotation Xrotation Yrotation
JOINT lShldr
{
OFFSET 14.17 0 0
CHANNELS 6 Xposition Yposition Zposition Zrotation Xrotation Yrotation
JOINT lForeArm
{
OFFSET 26.12 0 0
CHANNELS 6 Xposition Yposition Zposition Zrotation Xrotation Yrotation
JOINT lHand
{
OFFSET 27.71 0 0
CHANNELS 6 Xposition Yposition Zposition Zrotation Xrotation Yrotation
JOINT lThumb1
{
OFFSET 2.29 -0.46 1.83
CHANNELS 6 Xposition Yposition Zposition Zrotation Xrotation Yrotation
JOINT lThumb2
{
OFFSET 5.29 0 0
CHANNELS 6 Xposition Yposition Zposition Zrotation Xrotation Yrotation
JOINT lThumb3
{
OFFSET 3.01 0 0
CHANNELS 6 Xposition Yposition Zposition Zrotation Xrotation Yrotation
End Site
{
OFFSET 2.62 0 0
}
}
}
}
JOINT lIndex1
{
OFFSET 9.37 0.29 2.59
CHANNELS 6 Xposition Yposition Zposition Zrotation Xrotation Yrotation
JOINT lIndex2
{
OFFSET 4.34 0 0
CHANNELS 6 Xposition Yposition Zposition Zrotation Xrotation Yrotation
JOINT lIndex3
{
OFFSET 2.16 0 0
CHANNELS 6 Xposition Yposition Zposition Zrotation Xrotation Yrotation
End Site
{
OFFSET 2.20 0 0
}
}
}
}
JOINT lMid1
{
OFFSET 9.47 0.83 0.29
CHANNELS 6 Xposition Yposition Zposition Zrotation Xrotation Yrotation
JOINT lMid2
{
OFFSET 4.77 0 0
CHANNELS 6 Xposition Yposition Zposition Zrotation Xrotation Yrotation
JOINT lMid3
{
OFFSET 2.87 0 0
CHANNELS 6 Xposition Yposition Zposition Zrotation Xrotation Yrotation
End Site
{
OFFSET 2.09 0 0
}
}
}
}
JOINT lRing1
{
OFFSET 8.65 1.01 -1.70
CHANNELS 6 Xposition Yposition Zposition Zrotation Xrotation Yrotation
JOINT lRing2
{
OFFSET 4.54 0 0
CHANNELS 6 Xposition Yposition Zposition Zrotation Xrotation Yrotation
JOINT lRing3
{
OFFSET 2.50 0 0
CHANNELS 6 Xposition Yposition Zposition Zrotation Xrotation Yrotation
End Site
{
OFFSET 2.20 0 0
}
}
}
}
JOINT lPinky1
{
OFFSET 7.69 0.66 -3.90
CHANNELS 6 Xposition Yposition Zposition Zrotation Xrotation Yrotation
JOINT lPinky2
{
OFFSET 3.21 0 0
CHANNELS 6 Xposition Yposition Zposition Zrotation Xrotation Yrotation
JOINT lPinky3
{
OFFSET 1.92 0 0
CHANNELS 6 Xposition Yposition Zposition Zrotation Xrotation Yrotation
End Site
{
OFFSET 1.78 0 0
}
}
}
}
}
}
}
}
JOINT rCollar
{
OFFSET -4.06 26.61 -1.12
CHANNELS 6 Xposition Yposition Zposition Zrotation Xrotation Yrotation
JOINT rShldr
{
OFFSET -14.17 0 0
CHANNELS 6 Xposition Yposition Zposition Zrotation Xrotation Yrotation
JOINT rForeArm
{
OFFSET -26.12 0 0
CHANNELS 6 Xposition Yposition Zposition Zrotation Xrotation Yrotation
JOINT rHand
{
OFFSET -27.71 0 0
CHANNELS 6 Xposition Yposition Zposition Zrotation Xrotation Yrotation
JOINT rThumb1
{
OFFSET -2.29 -0.46 1.83
CHANNELS 6 Xposition Yposition Zposition Zrotation Xrotation Yrotation
JOINT rThumb2
{
OFFSET -5.29 0 0
CHANNELS 6 Xposition Yposition Zposition Zrotation Xrotation Yrotation
JOINT rThumb3
{
OFFSET -3.01 0 0
CHANNELS 6 Xposition Yposition Zposition Zrotation Xrotation Yrotation
End Site
{
OFFSET -2.62 0 0
}
}
}
}
JOINT rIndex1
{
OFFSET -9.37 0.29 2.59
CHANNELS 6 Xposition Yposition Zposition Zrotation Xrotation Yrotation
JOINT rIndex2
{
OFFSET -4.34 0 0
CHANNELS 6 Xposition Yposition Zposition Zrotation Xrotation Yrotation
JOINT rIndex3
{
OFFSET -2.16 0 0
CHANNELS 6 Xposition Yposition Zposition Zrotation Xrotation Yrotation
End Site
{
OFFSET -2.20 0 0
}
}
}
}
JOINT rMid1
{
OFFSET -9.47 0.83 0.29
CHANNELS 6 Xposition Yposition Zposition Zrotation Xrotation Yrotation
JOINT rMid2
{
OFFSET -4.77 0 0
CHANNELS 6 Xposition Yposition Zposition Zrotation Xrotation Yrotation
JOINT rMid3
{
OFFSET -2.87 0 0
CHANNELS 6 Xposition Yposition Zposition Zrotation Xrotation Yrotation
End Site
{
OFFSET -2.09 0 0
}
}
}
}
JOINT rRing1
{
OFFSET -8.65 1.01 -1.70
CHANNELS 6 Xposition Yposition Zposition Zrotation Xrotation Yrotation
JOINT rRing2
{
OFFSET -4.54 0 0
CHANNELS 6 Xposition Yposition Zposition Zrotation Xrotation Yrotation
JOINT rRing3
{
OFFSET -2.50 0 0
CHANNELS 6 Xposition Yposition Zposition Zrotation Xrotation Yrotation
End Site
{
OFFSET -2.20 0 0
}
}
}
}
JOINT rPinky1
{
OFFSET -7.69 0.66 -3.90
CHANNELS 6 Xposition Yposition Zposition Zrotation Xrotation Yrotation
JOINT rPinky2
{
OFFSET -3.21 0 0
CHANNELS 6 Xposition Yposition Zposition Zrotation Xrotation Yrotation
JOINT rPinky3
{
OFFSET -1.92 0 0
CHANNELS 6 Xposition Yposition Zposition Zrotation Xrotation Yrotation
End Site
{
OFFSET -1.78 0 0
}
}
}
}
}
}
}
}
}
}
JOINT lThigh
{
OFFSET 8.73 -0 0
CHANNELS 6 Xposition Yposition Zposition Zrotation Xrotation Yrotation
JOINT lShin
{
OFFSET 0 -46.66 0
CHANNELS 6 Xposition Yposition Zposition Zrotation Xrotation Yrotation
JOINT lFoot
{
OFFSET 0 -40.14 0
CHANNELS 6 Xposition Yposition Zposition Zrotation Xrotation Yrotation
JOINT lToes
{
OFFSET 0 -8.88 14.22
CHANNELS 6 Xposition Yposition Zposition Zrotation Xrotation Yrotation
End Site
{
OFFSET 0 0 6.29
}
}
}
}
}
JOINT rThigh
{
OFFSET -8.73 0 -0
CHANNELS 6 Xposition Yposition Zposition Zrotation Xrotation Yrotation
JOINT rShin
{
OFFSET 0 -46.66 0
CHANNELS 6 Xposition Yposition Zposition Zrotation Xrotation Yrotation
JOINT rFoot
{
OFFSET 0 -40.14 0
CHANNELS 6 Xposition Yposition Zposition Zrotation Xrotation Yrotation
JOINT rToes
{
OFFSET 0 -8.88 14.22
CHANNELS 6 Xposition Yposition Zposition Zrotation Xrotation Yrotation
End Site
{
OFFSET 0 0 6.29
}
}
}
}
}
}
MOTION
Frames: 8
Frame Time: 0.03
-2.11 96.33 -1.54 0.10 7.86 -11.18 0 7.23 0 0.59 3.69 0.29 0 16.54 0 0.93 9.24 0.45 0 34.21 0 -3.40 35.47 3.06 0 6.29 0 -11.96 -9.78 12.06 4.06 26.61 -1.12 -1.61 -6.04 3.94 14.17 0 0 -40.66 14.38 -60.64 26.12 0 0 -0.58 0.30 -52.38 27.71 0 0 25.39 41.16 11.39 2.29 -0.46 1.83 58.22 76.91 -81.92 5.29 0 0 -15.28 -16.77 3.24 3.01 0 0 12.48 -0 0 9.37 0.29 2.59 -3.58 0.25 -5.69 4.34 0 0 -18.26 -0.06 2.47 2.16 0 0 -2.16 0 0 9.47 0.83 0.29 -54.89 -12.93 -1.01 4.77 0 0 -66.74 -2.55 4.18 2.87 0 0 3.95 0.07 0.39 8.65 1.01 -1.70 -76.77 -6.55 -6.52 4.54 0 0 -69.94 2.13 -3.15 2.50 0 0 6.76 0 0 7.69 0.66 -3.90 -83.10 -20.37 -13.22 3.21 0 0 -96.33 -6.20 4.73 1.92 0 0 4.41 0 0 -4.06 26.61 -1.12 -1.21 -6.70 -1.79 -14.17 0 0 76.12 36.10 0.73 -26.12 0 0 0.29 -0.41 18.84 -27.71 0 0 -3.35 -11.13 0.37 -2.29 -0.46 1.83 -56.89 69.03 71.84 -5.29 0 0 10.50 2.44 -4.48 -3.01 0 0 -12.48 -0 0 -9.37 0.29 2.59 25.04 -2.69 -2.49 -4.34 0 0 38.21 -1.71 -5.44 -2.16 0 0 2.16 0 0 -9.47 0.83 0.29 35.38 -5.77 -1.25 -4.77 0 0 43.37 -1.67 -3.91 -2.87 0 0 -3.95 0.07 -0.39 -8.65 1.01 -1.70 43.54 0.22 -1.34 -4.54 0 0 64.26 2.80 3.97 -2.50 0 0 -6.76 0 0 -7.69 0.66 -3.90 57.03 -13.22 -0.68 -3.21 0 0 75.26 0.13 -2.62 -1.92 0 0 -4.41 0 0 8.73 -0 0 6.01 -17.95 19.38 0 -46.66 0 1.65 21.32 -0.24 0 -40.14 0 -1.78 -9.50 19.58 0 -8.88 14.22 0 0 0 -8.73 0 -0 3.13 -17.42 -7.33 0 -46.66 0 -1.41 19.41 0.22 0 -40.14 0 -1.79 -9.40 -1.62 0 -8.88 14.22 0 0 0 
-2.13 96.33 -1.55 0.04 7.92 -11.15 0 7.23 0 0.59 3.70 0.30 0 16.54 0 0.91 9.27 0.47 0 34.21 0 -3.38 35.42 3.06 0 6.29 0 -12.03 -9.80 12.08 4.06 26.61 -1.12 -1.60 -6.04 3.93 14.17 0 0 -40.54 14.36 -60.73 26.12 0 0 -0.58 0.30 -52.50 27.71 0 0 25.28 41.19 11.59 2.29 -0.46 1.83 58.18 76.98 -81.95 5.29 0 0 -15.39 -16.80 3.21 3.01 0 0 12.48 -0 0 9.37 0.29 2.59 -5.87 0.28 -5.61 4.34 0 0 -18.26 -0.06 2.47 2.16 0 0 -2.16 0 0 9.47 0.83 0.29 -55.15 -12.98 -1.02 4.77 0 0 -66.98 -2.57 4.19 2.87 0 0 3.95 0.07 0.39 8.65 1.01 -1.70 -77.04 -6.58 -6.55 4.54 0 0 -70.17 2.14 -3.16 2.50 0 0 6.76 0 0 7.69 0.66 -3.90 -83.43 -20.40 -13.29 3.21 0 0 -96.62 -6.24 4.73 1.92 0 0 4.41 0 0 -4.06 26.61 -1.12 -1.22 -6.69 -1.87 -14.17 0 0 75.97 36.16 1.01 -26.12 0 0 0.30 -0.41 19.03 -27.71 0 0 -3.14 -10.81 0.27 -2.29 -0.46 1.83 -56.88 69.02 71.83 -5.29 0 0 10.49 2.44 -4.48 -3.01 0 0 -12.48 -0 0 -9.37 0.29 2.59 25.01 -2.69 -2.49 -4.34 0 0 38.19 -1.71 -5.44 -2.16 0 0 2.16 0 0 -9.47 0.83 0.29 35.36 -5.77 -1.25 -4.77 0 0 43.34 -1.66 -3.91 -2.87 0 0 -3.95 0.07 -0.39 -8.65 1.01 -1.70 43.52 0.22 -1.34 -4.54 0 0 64.21 2.80 3.97 -2.50 0 0 -6.76 0 0 -7.69 0.66 -3.90 56.99 -13.22 -0.68 -3.21 0 0 75.22 0.13 -2.62 -1.92 0 0 -4.41 0 0 8.73 -0 0 6.08 -18.01 19.40 0 -46.66 0 1.65 21.34 -0.24 0 -40.14 0 -1.78 -9.50 19.55 0 -8.88 14.22 0 0 0 -8.73 0 -0 3.20 -17.48 -7.33 0 -46.66 0 -1.42 19.42 0.22 0 -40.14 0 -1.80 -9.37 -1.61 0 -8.88 14.22 0 0 -0 
-2.13 96.33 -1.55 0 7.97 -11.21 0 7.23 0 0.58 3.72 0.31 0 16.54 0 0.90 9.30 0.50 0 34.21 0 -3.34 35.36 3.03 0 6.29 0 -12.07 -9.84 12.04 4.06 26.61 -1.12 -1.52 -6.04 3.95 14.17 0 0 -40.83 14.31 -60.62 26.12 0 0 -0.58 0.30 -52.73 27.71 0 0 25.18 41.49 11.64 2.29 -0.46 1.83 58.44 76.49 -81.74 5.29 0 0 -14.67 -16.62 3.39 3.01 0 0 12.48 -0 0 9.37 0.29 2.59 -6.08 0.18 -5.46 4.34 0 0 -18.26 -0.06 2.47 2.16 0 0 -2.16 0 0 9.47 0.83 0.29 -53.45 -12.66 -0.97 4.77 0 0 -65.41 -2.47 4.15 2.87 0 0 3.95 0.07 0.39 8.65 1.01 -1.70 -75.29 -6.41 -6.34 4.54 0 0 -68.68 2.07 -3.13 2.50 0 0 6.76 0 0 7.69 0.66 -3.90 -81.27 -20.21 -12.84 3.21 0 0 -94.71 -5.99 4.75 1.92 0 0 4.41 0 0 -4.06 26.61 -1.12 -1.17 -6.67 -1.94 -14.17 0 0 75.77 36.19 1.25 -26.12 0 0 0.30 -0.40 19.30 -27.71 0 0 -2.98 -10.57 0.09 -2.29 -0.46 1.83 -56.87 69.01 71.83 -5.29 0 0 10.49 2.44 -4.48 -3.01 0 0 -12.48 -0 0 -9.37 0.29 2.59 24.99 -2.69 -2.48 -4.34 0 0 38.16 -1.71 -5.43 -2.16 0 0 2.16 0 0 -9.47 0.83 0.29 35.34 -5.77 -1.25 -4.77 0 0 43.31 -1.66 -3.90 -2.87 0 0 -3.95 0.07 -0.39 -8.65 1.01 -1.70 43.50 0.22 -1.34 -4.54 0 0 64.16 2.79 3.97 -2.50 0 0 -6.76 0 0 -7.69 0.66 -3.90 56.94 -13.22 -0.69 -3.21 0 0 75.18 0.13 -2.62 -1.92 0 0 -4.41 0 0 8.73 -0 0 6.16 -18.06 19.41 0 -46.66 0 1.65 21.39 -0.24 0 -40.14 0 -1.79 -9.55 19.60 0 -8.88 14.22 0 0 -0 -8.73 0 -0 3.26 -17.53 -7.33 0 -46.66 0 -1.42 19.42 0.22 0 -40.14 0 -1.80 -9.33 -1.50 0 -8.88 14.22 0 0 0 
-2.13 96.32 -1.52 -0.02 8.02 -11.33 0 7.23 0 0.58 3.73 0.33 0 16.54 0 0.89 9.32 0.53 0 34.21 0 -3.30 35.31 3.01 0 6.29 0 -12.10 -9.86 11.99 4.06 26.61 -1.12 -1.40 -6.03 3.99 14.17 0 0 -41.32 14.14 -58.42 26.12 0 0 -0.63 0.37 -57.26 27.71 0 0 25.33 42.32 11.66 2.29 -0.46 1.83 58.85 75.64 -81.34 5.29 0 0 -13.41 -16.32 3.69 3.01 0 0 12.48 -0 0 9.37 0.29 2.59 -5.29 0 -5.26 4.34 0 0 -26.34 -2.05 4.68 2.16 0 0 -2.16 0 0 9.47 0.83 0.29 -50.50 -12.09 -0.88 4.77 0 0 -62.67 -2.29 4.06 2.87 0 0 3.95 0.07 0.39 8.65 1.01 -1.70 -72.26 -6.10 -5.98 4.54 0 0 -66.11 1.95 -3.08 2.50 0 0 6.76 0 0 7.69 0.66 -3.90 -77.53 -19.86 -12.07 3.21 0 0 -91.39 -5.57 4.77 1.92 0 0 4.41 0 0 -4.06 26.61 -1.12 -1.10 -6.66 -1.98 -14.17 0 0 75.62 36.20 1.40 -26.12 0 0 0.30 -0.39 19.56 -27.71 0 0 -2.87 -10.40 -0.07 -2.29 -0.46 1.83 -56.87 69.00 71.82 -5.29 0 0 10.48 2.44 -4.48 -3.01 0 0 -12.48 -0 0 -9.37 0.29 2.59 24.96 -2.69 -2.48 -4.34 0 0 38.14 -1.71 -5.43 -2.16 0 0 2.16 0 0 -9.47 0.83 0.29 35.31 -5.77 -1.25 -4.77 0 0 43.27 -1.66 -3.90 -2.87 0 0 -3.95 0.07 -0.39 -8.65 1.01 -1.70 43.47 0.22 -1.34 -4.54 0 0 64.10 2.79 3.97 -2.50 0 0 -6.76 0 0 -7.69 0.66 -3.90 56.89 -13.22 -0.70 -3.21 0 0 75.12 0.13 -2.61 -1.92 0 0 -4.41 0 0 8.73 -0 0 6.22 -18.10 19.42 0 -46.66 0 1.66 21.48 -0.24 0 -40.14 0 -1.81 -9.61 19.71 0 -8.88 14.22 0 0 0 -8.73 0 -0 3.31 -17.55 -7.33 0 -46.66 0 -1.42 19.40 0.22 0 -40.14 0 -1.81 -9.31 -1.35 0 -8.88 14.22 0 0 -0 
-2.13 96.32 -1.49 -0.02 8.05 -11.46 0 7.23 0 0.59 3.74 0.35 0 16.54 0 0.89 9.34 0.57 0 34.21 0 -3.28 35.27 2.99 0 6.29 0 -12.13 -9.86 11.96 4.06 26.61 -1.12 -1.34 -6.02 4.02 14.17 0 0 -41.87 14.19 -56.27 26.12 0 0 -0.66 0.43 -60.95 27.71 0 0 24.97 43.33 12.27 2.29 -0.46 1.83 59.22 74.79 -80.90 5.29 0 0 -12.15 -16.02 3.98 3.01 0 0 12.48 -0 0 9.37 0.29 2.59 -4.23 -0.17 -5.07 4.34 0 0 -32.14 -3.21 5.96 2.16 0 0 -2.16 0 0 9.47 0.83 0.29 -47.55 -11.52 -0.79 4.77 0 0 -59.94 -2.12 3.97 2.87 0 0 3.95 0.07 0.39 8.65 1.01 -1.70 -69.24 -5.79 -5.62 4.54 0 0 -63.53 1.83 -3.03 2.50 0 0 6.76 0 0 7.69 0.66 -3.90 -73.80 -19.50 -11.29 3.21 0 0 -88.07 -5.14 4.76 1.92 0 0 4.41 0 0 -4.06 26.61 -1.12 -1.02 -6.65 -2.01 -14.17 0 0 75.59 36.23 1.46 -26.12 0 0 0.30 -0.39 19.66 -27.71 0 0 -2.83 -10.32 -0.14 -2.29 -0.46 1.83 -56.86 68.99 71.82 -5.29 0 0 10.47 2.44 -4.48 -3.01 0 0 -12.48 -0 0 -9.37 0.29 2.59 24.94 -2.69 -2.48 -4.34 0 0 38.11 -1.70 -5.43 -2.16 0 0 2.16 0 0 -9.47 0.83 0.29 35.28 -5.77 -1.25 -4.77 0 0 43.23 -1.66 -3.90 -2.87 0 0 -3.95 0.07 -0.39 -8.65 1.01 -1.70 43.44 0.22 -1.35 -4.54 0 0 64.03 2.78 3.96 -2.50 0 0 -6.76 0 0 -7.69 0.66 -3.90 56.83 -13.22 -0.71 -3.21 0 0 75.07 0.14 -2.61 -1.92 0 0 -4.41 0 0 8.73 -0 0 6.25 -18.13 19.43 0 -46.66 0 1.67 21.57 -0.24 0 -40.14 0 -1.82 -9.68 19.84 0 -8.88 14.22 0 0 -0 -8.73 0 -0 3.34 -17.56 -7.33 0 -46.66 0 -1.42 19.39 0.22 0 -40.14 0 -1.83 -9.34 -1.27 0 -8.88 14.22 0 0 -0 
-2.12 96.31 -1.45 -0.01 8.07 -11.55 0 7.23 0 0.59 3.75 0.36 0 16.54 0 0.90 9.36 0.60 0 34.21 0 -3.25 35.24 2.97 0 6.29 0 -12.16 -9.83 11.94 4.06 26.61 -1.12 -1.41 -6.03 4.00 14.17 0 0 -42.31 14.28 -54.18 26.12 0 0 -0.69 0.48 -64.39 27.71 0 0 24.38 44.34 13.25 2.29 -0.46 1.83 59.42 74.29 -80.63 5.29 0 0 -11.43 -15.85 4.14 3.01 0 0 12.48 -0 0 9.37 0.29 2.59 -3.61 -0.28 -4.96 4.34 0 0 -35.45 -3.90 6.67 2.16 0 0 -2.16 0 0 9.47 0.83 0.29 -45.86 -11.19 -0.75 4.77 0 0 -58.37 -2.03 3.91 2.87 0 0 3.95 0.07 0.39 8.65 1.01 -1.70 -67.51 -5.60 -5.41 4.54 0 0 -62.05 1.77 -2.99 2.50 0 0 6.76 0 0 7.69 0.66 -3.90 -71.66 -19.28 -10.85 3.21 0 0 -86.17 -4.90 4.74 1.92 0 0 4.41 0 0 -4.06 26.61 -1.12 -0.97 -6.64 -2.04 -14.17 0 0 75.73 36.27 1.48 -26.12 0 0 0.30 -0.40 19.46 -27.71 0 0 -2.97 -10.39 -0.06 -2.29 -0.46 1.83 -56.85 68.98 71.81 -5.29 0 0 10.46 2.44 -4.48 -3.01 0 0 -12.48 -0 0 -9.37 0.29 2.59 24.91 -2.69 -2.48 -4.34 0 0 38.08 -1.70 -5.43 -2.16 0 0 2.16 0 0 -9.47 0.83 0.29 35.25 -5.77 -1.25 -4.77 0 0 43.19 -1.65 -3.90 -2.87 0 0 -3.95 0.07 -0.39 -8.65 1.01 -1.70 43.41 0.22 -1.35 -4.54 0 0 63.96 2.78 3.96 -2.50 0 0 -6.76 0 0 -7.69 0.66 -3.90 56.77 -13.22 -0.72 -3.21 0 0 75.01 0.14 -2.60 -1.92 0 0 -4.41 0 0 8.73 -0 0 6.25 -18.15 19.46 0 -46.66 0 1.68 21.66 -0.25 0 -40.14 0 -1.83 -9.76 19.91 0 -8.88 14.22 0 0 0 -8.73 0 -0 3.34 -17.57 -7.32 0 -46.66 0 -1.42 19.42 0.22 0 -40.14 0 -1.85 -9.41 -1.25 0 -8.88 14.22 0 0 -0 
-2.11 96.29 -1.43 -0 8.09 -11.57 0 7.23 0 0.59 3.76 0.38 0 16.54 0 0.90 9.39 0.63 0 34.21 0 -3.22 35.21 2.95 0 6.29 0 -12.16 -9.78 11.92 4.06 26.61 -1.12 -1.60 -6.04 3.93 14.17 0 0 -42.53 14.30 -52.58 26.12 0 0 -0.71 0.52 -67.11 27.71 0 0 23.96 45.15 14.17 2.29 -0.46 1.83 59.43 74.26 -80.61 5.29 0 0 -11.38 -15.84 4.16 3.01 0 0 12.48 -0 0 9.37 0.29 2.59 -3.61 -0.29 -4.94 4.34 0 0 -35.65 -3.94 6.72 2.16 0 0 -2.16 0 0 9.47 0.83 0.29 -45.73 -11.16 -0.74 4.77 0 0 -58.25 -2.02 3.91 2.87 0 0 3.95 0.07 0.39 8.65 1.01 -1.70 -67.38 -5.58 -5.39 4.54 0 0 -61.94 1.76 -2.99 2.50 0 0 6.76 0 0 7.69 0.66 -3.90 -71.50 -19.26 -10.81 3.21 0 0 -86.02 -4.88 4.74 1.92 0 0 4.41 0 0 -4.06 26.61 -1.12 -0.95 -6.63 -2.09 -14.17 0 0 75.98 36.33 1.53 -26.12 0 0 0.30 -0.41 18.99 -27.71 0 0 -3.32 -10.63 0.09 -2.29 -0.46 1.83 -56.84 68.96 71.81 -5.29 0 0 10.46 2.44 -4.47 -3.01 0 0 -12.48 -0 0 -9.37 0.29 2.59 24.87 -2.69 -2.47 -4.34 0 0 38.05 -1.70 -5.42 -2.16 0 0 2.16 0 0 -9.47 0.83 0.29 35.22 -5.77 -1.25 -4.77 0 0 43.15 -1.65 -3.89 -2.87 0 0 -3.95 0.07 -0.39 -8.65 1.01 -1.70 43.38 0.22 -1.35 -4.54 0 0 63.89 2.77 3.96 -2.50 0 0 -6.76 0 0 -7.69 0.66 -3.90 56.70 -13.22 -0.74 -3.21 0 0 74.95 0.14 -2.60 -1.92 0 0 -4.41 0 0 8.73 -0 0 6.26 -18.20 19.50 0 -46.66 0 1.70 21.76 -0.25 0 -40.14 0 -1.83 -9.82 19.88 0 -8.88 14.22 0 0 0 -8.73 0 -0 3.33 -17.62 -7.31 0 -46.66 0 -1.43 19.51 0.22 0 -40.14 0 -1.85 -9.48 -1.27 0 -8.88 14.22 0 0 0 
-2.10 96.27 -1.43 0 8.13 -11.50 0 7.23 0 0.60 3.77 0.39 0 16.54 0 0.91 9.42 0.65 0 34.21 0 -3.18 35.20 2.93 0 6.29 0 -12.09 -9.71 11.90 4.06 26.61 -1.12 -1.80 -6.06 3.85 14.17 0 0 -42.46 14.23 -51.84 26.12 0 0 -0.72 0.55 -68.66 27.71 0 0 23.96 45.48 14.52 2.29 -0.46 1.83 59.35 74.47 -80.73 5.29 0 0 -11.69 -15.91 4.08 3.01 0 0 12.48 -0 0 9.37 0.29 2.59 -3.87 -0.26 -4.97 4.34 0 0 -34.11 -3.59 6.36 2.16 0 0 -2.16 0 0 9.47 0.83 0.29 -46.47 -11.31 -0.76 4.77 0 0 -58.94 -2.06 3.93 2.87 0 0 3.95 0.07 0.39 8.65 1.01 -1.70 -68.14 -5.67 -5.48 4.54 0 0 -62.59 1.79 -3.00 2.50 0 0 6.76 0 0 7.69 0.66 -3.90 -72.44 -19.36 -11.01 3.21 0 0 -86.86 -4.98 4.75 1.92 0 0 4.41 0 0 -4.06 26.61 -1.12 -0.95 -6.63 -2.15 -14.17 0 0 76.18 36.38 1.66 -26.12 0 0 0.29 -0.43 18.43 -27.71 0 0 -3.71 -11.04 0.28 -2.29 -0.46 1.83 -56.83 68.95 71.80 -5.29 0 0 10.45 2.44 -4.47 -3.01 0 0 -12.48 -0 0 -9.37 0.29 2.59 24.84 -2.68 -2.47 -4.34 0 0 38.01 -1.70 -5.42 -2.16 0 0 2.16 0 0 -9.47 0.83 0.29 35.19 -5.77 -1.25 -4.77 0 0 43.10 -1.65 -3.89 -2.87 0 0 -3.95 0.07 -0.39 -8.65 1.01 -1.70 43.35 0.22 -1.35 -4.54 0 0 63.81 2.77 3.96 -2.50 0 0 -6.76 0 0 -7.69 0.66 -3.90 56.63 -13.22 -0.75 -3.21 0 0 74.88 0.14 -2.60 -1.92 0 0 -4.41 0 0 8.73 -0 0 6.27 -18.28 19.55 0 -46.66 0 1.71 21.84 -0.25 0 -40.14 0 -1.83 -9.86 19.77 0 -8.88 14.22 0 0 0 -8.73 0 -0 3.33 -17.70 -7.30 0 -46.66 0 -1.44 19.60 0.23 0 -40.14 0 -1.84 -9.53 -1.32 0 -8.88 14.22 0 0 0 
